<svg xmlns="http://www.w3.org/2000/svg" viewBox="0 0 64 64" width="64" height="64">
  <defs>
    <linearGradient id="wa-grad" x1="0%" y1="0%" x2="100%" y2="100%">
      <stop offset="0%" stop-color="#25D366"/>
      <stop offset="100%" stop-color="#128C7E"/>
    </linearGradient>
  </defs>
  <rect width="64" height="64" rx="14" fill="url(#wa-grad)"/>
  <path fill="#ffffff" d="M32 14a18 18 0 0 0-15.6 26.9L14 50l9.4-2.5A18 18 0 1 0 32 14Zm0 32.7a14.6 14.6 0 0 1-7.5-2.1l-.54-.32-5.58 1.48 1.49-5.44-.35-.56A14.7 14.7 0 1 1 32 46.7Zm8.04-10.99c-.44-.22-2.61-1.29-3.01-1.44-.4-.15-.7-.22-.99.22-.29.44-1.13 1.44-1.39 1.73-.26.29-.51.33-.95.11-.44-.22-1.86-.69-3.55-2.19-1.31-1.17-2.2-2.62-2.46-3.06-.26-.44-.03-.68.19-.9.2-.2.44-.51.66-.77.22-.26.29-.45.44-.74.15-.29.07-.55-.04-.77-.11-.22-.99-2.39-1.36-3.27-.36-.86-.72-.74-.99-.76l-.84-.01c-.29 0-.77.11-1.17.55-.4.44-1.53 1.5-1.53 3.65s1.57 4.23 1.79 4.52c.22.29 3.08 4.71 7.47 6.6 1.04.45 1.86.72 2.49.92 1.05.33 2 .28 2.75.17.84-.12 2.61-1.07 2.98-2.1.37-1.03.37-1.91.26-2.1-.11-.19-.4-.29-.84-.51Z"/>
</svg>
